<svg width="66" height="60" viewBox="0 0 66 60" fill="none" xmlns="http://www.w3.org/2000/svg">
<path d="M11.5001 0C8.6269 0 5.8714 1.14137 3.83976 3.17301C1.80811 5.20465 0.666748 7.96016 0.666748 10.8333V40.8333C0.666748 43.7065 1.80811 46.462 3.83976 48.4937C5.8714 50.5253 8.6269 51.6667 11.5001 51.6667H46.5001C49.3733 51.6667 52.1288 50.5253 54.1604 48.4937C56.1921 46.462 57.3334 43.7065 57.3334 40.8333V10.8333C57.3334 7.96016 56.1921 5.20465 54.1604 3.17301C52.1288 1.14137 49.3733 0 46.5001 0H11.5001ZM20.6667 34.1667V15.8367C20.6669 15.388 20.7878 14.9476 21.0168 14.5617C21.2458 14.1758 21.5744 13.8587 21.9682 13.6436C22.3619 13.4284 22.8063 13.3232 23.2548 13.339C23.7032 13.3548 24.1391 13.491 24.5167 13.7333L39.9101 23.5967C40.1454 23.7475 40.3391 23.955 40.4732 24.2002C40.6073 24.4455 40.6776 24.7205 40.6776 25C40.6776 25.2795 40.6073 25.5545 40.4732 25.7998C40.3391 26.045 40.1454 26.2525 39.9101 26.4033L24.5167 36.2667C24.1391 36.509 23.7032 36.6452 23.2548 36.661C22.8063 36.6768 22.3619 36.5716 21.9682 36.3564C21.5744 36.1413 21.2458 35.8242 21.0168 35.4383C20.7878 35.0524 20.6669 34.612 20.6667 34.1633V34.1667ZM19.8334 60C18.0134 60.0017 16.2224 59.5444 14.626 58.6705C13.0296 57.7965 11.6793 56.5341 10.7001 55H48.1668C51.482 55 54.6614 53.683 57.0056 51.3388C59.3498 48.9946 60.6668 45.8152 60.6668 42.5V10.0333C62.2009 11.0126 63.4633 12.3628 64.3372 13.9592C65.2112 15.5557 65.6684 17.3467 65.6667 19.1667V42.5C65.6667 52.1667 57.8334 60 48.1668 60H19.8334Z" fill="#01AEE7"/>
</svg>
