<svg width="70" height="63" viewBox="0 0 70 63" fill="none" xmlns="http://www.w3.org/2000/svg">
<mask id="mask0_1_639" style="mask-type:luminance" maskUnits="userSpaceOnUse" x="0" y="0" width="70" height="63">
<path d="M2 39.5002C2 38.3951 2.34613 37.3353 2.96224 36.5539C3.57836 35.7725 4.41399 35.3335 5.2853 35.3335H11.8559V60.3335H5.2853C4.41399 60.3335 3.57836 59.8945 2.96224 59.1131C2.34613 58.3317 2 57.2719 2 56.1668V39.5002ZM57.8501 35.3335H64.4207C65.2921 35.3335 66.1277 35.7725 66.7438 36.5539C67.3599 37.3353 67.7061 38.3951 67.7061 39.5002V56.1668C67.7061 57.2719 67.3599 58.3317 66.7438 59.1131C66.1277 59.8945 65.2921 60.3335 64.4207 60.3335H57.8501V35.3335Z" fill="white"/>
<path d="M11.8559 56.1667V31.1667C11.8559 15.0583 22.152 2 34.853 2C47.554 2 57.8501 15.0583 57.8501 31.1667V56.1667M11.8559 35.3333H5.2853C4.41399 35.3333 3.57836 35.7723 2.96224 36.5537C2.34613 37.3351 2 38.3949 2 39.5V56.1667C2 57.2717 2.34613 58.3315 2.96224 59.1129C3.57836 59.8943 4.41399 60.3333 5.2853 60.3333H11.8559V35.3333ZM57.8501 35.3333H64.4208C65.2921 35.3333 66.1277 35.7723 66.7438 36.5537C67.3599 37.3351 67.7061 38.3949 67.7061 39.5V56.1667C67.7061 57.2717 67.3599 58.3315 66.7438 59.1129C66.1277 59.8943 65.2921 60.3333 64.4208 60.3333H57.8501V35.3333Z" stroke="white" stroke-width="4" stroke-linecap="round" stroke-linejoin="round"/>
<path d="M21.7119 47.8335H28.2825L31.5678 35.3335L38.1384 60.3335L41.4237 47.8335H47.9943" stroke="white" stroke-width="4" stroke-linecap="round" stroke-linejoin="round"/>
</mask>
<g mask="url(#mask0_1_639)">
<path d="M-4.57056 -18.8335H74.2767V81.1665H-4.57056V-18.8335Z" fill="#01AEE7"/>
</g>
</svg>
